<svg width="198" height="69" viewBox="0 0 198 69" fill="none" xmlns="http://www.w3.org/2000/svg">
<g clip-path="url(#clip0_29_73)">
<path d="M0 4.93043C0 2.20743 2.20743 0 4.93043 0H192.71C195.433 0 197.641 2.20743 197.641 4.93043V63.3738C197.641 66.0968 195.433 68.3043 192.71 68.3043H4.93043C2.20743 68.3043 0 66.0968 0 63.3738V4.93043Z" fill="white"/>
<rect width="197.641" height="2.46521" fill="#34A853"/>
<path d="M50.9991 35.786C50.9991 34.5341 50.8868 33.3304 50.6781 32.1748H34.0508V39.0119H43.5521C43.1348 41.2107 41.883 43.0725 40.0052 44.3243V48.7701H45.7349C49.0732 45.6885 50.9991 41.1626 50.9991 35.786Z" fill="#4285F4"/>
<path d="M34.0536 53.039C38.8204 53.039 42.8167 51.4661 45.7377 48.7698L40.008 44.3241C38.4352 45.3834 36.429 46.0253 34.0536 46.0253C29.4635 46.0253 25.5634 42.9278 24.1671 38.7549H18.293V43.313C21.1979 49.0748 27.1523 53.039 34.0536 53.039Z" fill="#34A853"/>
<path d="M24.1664 38.7385C23.8133 37.6792 23.6047 36.5557 23.6047 35.3841C23.6047 34.2125 23.8133 33.089 24.1664 32.0298V27.4717H18.2923C17.0886 29.847 16.3984 32.5273 16.3984 35.3841C16.3984 38.2409 17.0886 40.9212 18.2923 43.2966L22.8664 39.7336L24.1664 38.7385Z" fill="#FBBC05"/>
<path d="M34.0536 24.7602C36.6537 24.7602 38.9648 25.659 40.8105 27.3923L45.8661 22.3367C42.8007 19.4799 38.8204 17.7305 34.0536 17.7305C27.1523 17.7305 21.1979 21.6947 18.293 27.4726L24.1671 32.0306C25.5634 27.8577 29.4635 24.7602 34.0536 24.7602Z" fill="#EA4335"/>
<path d="M65.1401 21.4445C64.6142 21.4445 64.1277 21.3492 63.6807 21.1585C63.2337 20.9679 62.8425 20.7017 62.5072 20.3598C62.172 20.018 61.909 19.617 61.7184 19.1568C61.5343 18.6966 61.4423 18.1937 61.4423 17.6481C61.4423 17.1024 61.531 16.5995 61.7085 16.1394C61.8926 15.6726 62.149 15.2716 62.4777 14.9363C62.8129 14.5945 63.2041 14.3315 63.6511 14.1475C64.0981 13.9568 64.5846 13.8615 65.1105 13.8615C65.6364 13.8615 66.1065 13.9503 66.5206 14.1277C66.9413 14.3052 67.2963 14.5419 67.5856 14.8377C67.8748 15.127 68.0819 15.4458 68.2068 15.7942L67.0137 16.3662C66.8756 15.9849 66.6422 15.6759 66.3135 15.4392C65.9848 15.2026 65.5838 15.0843 65.1105 15.0843C64.6503 15.0843 64.2428 15.1927 63.8878 15.4097C63.5393 15.6266 63.2665 15.9257 63.0693 16.307C62.8787 16.6883 62.7833 17.1353 62.7833 17.6481C62.7833 18.1608 62.882 18.6111 63.0792 18.999C63.283 19.3803 63.5624 19.6794 63.9173 19.8963C64.2723 20.1133 64.6799 20.2218 65.1401 20.2218C65.5148 20.2218 65.8599 20.1494 66.1755 20.0048C66.491 19.8536 66.7441 19.6433 66.9348 19.3737C67.1254 19.0976 67.2207 18.7722 67.2207 18.3975V17.8354L67.8321 18.3679H65.1105V17.2339H68.5618V17.9735C68.5618 18.5388 68.4665 19.0385 68.2758 19.4723C68.0852 19.9062 67.8255 20.2711 67.4968 20.5669C67.1747 20.8561 66.8099 21.0764 66.4023 21.2276C65.9947 21.3722 65.574 21.4445 65.1401 21.4445ZM72.1375 21.4445C71.6116 21.4445 71.1317 21.3229 70.6978 21.0797C70.2705 20.8364 69.9287 20.5044 69.6723 20.0837C69.4225 19.663 69.2976 19.1831 69.2976 18.644C69.2976 18.105 69.4225 17.6251 69.6723 17.2043C69.9287 16.7836 70.2705 16.4516 70.6978 16.2084C71.1251 15.9652 71.605 15.8435 72.1375 15.8435C72.6634 15.8435 73.14 15.9652 73.5673 16.2084C73.9947 16.4516 74.3332 16.7836 74.583 17.2043C74.8394 17.6185 74.9676 18.0984 74.9676 18.644C74.9676 19.1831 74.8394 19.663 74.583 20.0837C74.3266 20.5044 73.9848 20.8364 73.5575 21.0797C73.1302 21.3229 72.6569 21.4445 72.1375 21.4445ZM72.1375 20.2612C72.4268 20.2612 72.6799 20.1922 72.8968 20.0541C73.1203 19.9161 73.2945 19.7254 73.4194 19.4822C73.5509 19.2324 73.6167 18.953 73.6167 18.644C73.6167 18.3285 73.5509 18.0524 73.4194 17.8157C73.2945 17.5725 73.1203 17.3818 72.8968 17.2438C72.6799 17.0992 72.4268 17.0268 72.1375 17.0268C71.8417 17.0268 71.582 17.0992 71.3585 17.2438C71.135 17.3818 70.9575 17.5725 70.826 17.8157C70.7011 18.0524 70.6387 18.3285 70.6387 18.644C70.6387 18.953 70.7011 19.2324 70.826 19.4822C70.9575 19.7254 71.135 19.9161 71.3585 20.0541C71.582 20.1922 71.8417 20.2612 72.1375 20.2612ZM78.5702 21.4445C78.0443 21.4445 77.5644 21.3229 77.1305 21.0797C76.7032 20.8364 76.3614 20.5044 76.105 20.0837C75.8552 19.663 75.7303 19.1831 75.7303 18.644C75.7303 18.105 75.8552 17.6251 76.105 17.2043C76.3614 16.7836 76.7032 16.4516 77.1305 16.2084C77.5578 15.9652 78.0377 15.8435 78.5702 15.8435C79.0961 15.8435 79.5727 15.9652 80 16.2084C80.4273 16.4516 80.7659 16.7836 81.0157 17.2043C81.2721 17.6185 81.4003 18.0984 81.4003 18.644C81.4003 19.1831 81.2721 19.663 81.0157 20.0837C80.7593 20.5044 80.4175 20.8364 79.9902 21.0797C79.5628 21.3229 79.0895 21.4445 78.5702 21.4445ZM78.5702 20.2612C78.8594 20.2612 79.1125 20.1922 79.3295 20.0541C79.553 19.9161 79.7272 19.7254 79.8521 19.4822C79.9836 19.2324 80.0493 18.953 80.0493 18.644C80.0493 18.3285 79.9836 18.0524 79.8521 17.8157C79.7272 17.5725 79.553 17.3818 79.3295 17.2438C79.1125 17.0992 78.8594 17.0268 78.5702 17.0268C78.2744 17.0268 78.0147 17.0992 77.7912 17.2438C77.5677 17.3818 77.3902 17.5725 77.2587 17.8157C77.1338 18.0524 77.0713 18.3285 77.0713 18.644C77.0713 18.953 77.1338 19.2324 77.2587 19.4822C77.3902 19.7254 77.5677 19.9161 77.7912 20.0541C78.0147 20.1922 78.2744 20.2612 78.5702 20.2612ZM84.9831 23.4956C84.5821 23.4956 84.2107 23.4298 83.8689 23.2983C83.527 23.1669 83.2312 22.9828 82.9814 22.7461C82.7381 22.516 82.5607 22.2432 82.4489 21.9277L83.6519 21.4741C83.7308 21.7239 83.8853 21.9244 84.1154 22.0756C84.352 22.2334 84.6413 22.3123 84.9831 22.3123C85.2461 22.3123 85.4762 22.263 85.6734 22.1643C85.8772 22.0657 86.035 21.9211 86.1467 21.7305C86.2585 21.5464 86.3143 21.3229 86.3143 21.0599V19.8372L86.5609 20.133C86.3768 20.4551 86.1303 20.6984 85.8213 20.8627C85.5123 21.0271 85.1606 21.1092 84.7662 21.1092C84.2666 21.1092 83.8196 20.9942 83.4251 20.7641C83.0307 20.534 82.7217 20.2185 82.4982 19.8175C82.2747 19.4165 82.1629 18.9661 82.1629 18.4665C82.1629 17.9603 82.2747 17.51 82.4982 17.1156C82.7217 16.7212 83.0274 16.4122 83.4153 16.1887C83.8031 15.9586 84.2436 15.8435 84.7366 15.8435C85.1376 15.8435 85.4893 15.929 85.7917 16.0999C86.1007 16.2643 86.3571 16.5042 86.5609 16.8198L86.3834 17.1452V15.9619H87.6061V21.0599C87.6061 21.5267 87.4911 21.9441 87.261 22.3123C87.0375 22.6804 86.7285 22.9696 86.3341 23.18C85.9462 23.3904 85.4959 23.4956 84.9831 23.4956ZM84.924 19.9161C85.2001 19.9161 85.44 19.8569 85.6438 19.7386C85.8542 19.6137 86.0185 19.4427 86.1369 19.2258C86.2552 19.0089 86.3143 18.7591 86.3143 18.4764C86.3143 18.2003 86.2519 17.9538 86.127 17.7368C86.0087 17.5133 85.8443 17.3391 85.634 17.2142C85.4302 17.0893 85.1935 17.0268 84.924 17.0268C84.6544 17.0268 84.4112 17.0893 84.1943 17.2142C83.9773 17.3391 83.8064 17.5133 83.6815 17.7368C83.5632 17.9538 83.504 18.2003 83.504 18.4764C83.504 18.7525 83.5632 18.999 83.6815 19.2159C83.8064 19.4329 83.974 19.6038 84.1844 19.7287C84.4013 19.8536 84.6479 19.9161 84.924 19.9161ZM88.8125 21.3262V13.8615H90.1043V21.3262H88.8125ZM93.8411 21.4445C93.2889 21.4445 92.8057 21.3196 92.3916 21.0698C91.9774 20.82 91.6553 20.4814 91.4252 20.0541C91.1951 19.6268 91.0801 19.1535 91.0801 18.6342C91.0801 18.0951 91.1951 17.6185 91.4252 17.2043C91.6619 16.7836 91.9807 16.4516 92.3817 16.2084C92.7893 15.9652 93.2429 15.8435 93.7425 15.8435C94.1632 15.8435 94.5314 15.9126 94.8469 16.0506C95.169 16.1887 95.4419 16.3793 95.6654 16.6225C95.8889 16.8658 96.0598 17.1452 96.1781 17.4607C96.2965 17.7697 96.3556 18.105 96.3556 18.4665C96.3556 18.5586 96.3491 18.6539 96.3359 18.7525C96.3293 18.8511 96.3129 18.9366 96.2866 19.0089H92.145V18.0228H95.5569L94.9455 18.4862C95.0047 18.1838 94.9883 17.9143 94.8962 17.6777C94.8108 17.441 94.6661 17.2536 94.4623 17.1156C94.2651 16.9775 94.0252 16.9085 93.7425 16.9085C93.473 16.9085 93.233 16.9775 93.0227 17.1156C92.8123 17.2471 92.6512 17.4443 92.5395 17.7072C92.4343 17.9636 92.3949 18.2759 92.4211 18.644C92.3949 18.9727 92.4376 19.2653 92.5493 19.5216C92.6677 19.7714 92.8386 19.9654 93.0621 20.1034C93.2922 20.2415 93.5551 20.3105 93.851 20.3105C94.1468 20.3105 94.3966 20.2481 94.6004 20.1231C94.8108 19.9982 94.9751 19.8306 95.0934 19.6202L96.1387 20.133C96.0335 20.3894 95.8692 20.6162 95.6456 20.8134C95.4221 21.0106 95.1559 21.1651 94.8469 21.2769C94.5445 21.3886 94.2092 21.4445 93.8411 21.4445ZM99.1959 21.3262V13.9798H101.927C102.427 13.9798 102.867 14.0719 103.249 14.2559C103.637 14.4334 103.939 14.6964 104.156 15.0448C104.373 15.3866 104.481 15.8041 104.481 16.2971C104.481 16.8033 104.36 17.2339 104.117 17.5889C103.88 17.9439 103.558 18.2069 103.15 18.3778L104.836 21.3262H103.318L101.513 18.1017L102.381 18.6144H100.537V21.3262H99.1959ZM100.537 17.4311H101.947C102.19 17.4311 102.401 17.3851 102.578 17.2931C102.756 17.1945 102.894 17.0597 102.992 16.8888C103.091 16.7179 103.14 16.5206 103.14 16.2971C103.14 16.067 103.091 15.8698 102.992 15.7055C102.894 15.5346 102.756 15.4031 102.578 15.3111C102.401 15.2124 102.19 15.1631 101.947 15.1631H100.537V17.4311ZM107.234 21.4445C106.859 21.4445 106.534 21.3821 106.258 21.2571C105.982 21.1322 105.768 20.9547 105.617 20.7247C105.465 20.488 105.39 20.2152 105.39 19.9062C105.39 19.6104 105.456 19.3474 105.587 19.1173C105.719 18.8807 105.922 18.6835 106.198 18.5257C106.475 18.3679 106.823 18.2562 107.244 18.1904L108.999 17.9045V18.8905L107.49 19.1469C107.234 19.1929 107.043 19.2751 106.918 19.3934C106.793 19.5118 106.731 19.6663 106.731 19.8569C106.731 20.041 106.8 20.1889 106.938 20.3006C107.083 20.4058 107.26 20.4584 107.471 20.4584C107.74 20.4584 107.977 20.4025 108.18 20.2908C108.391 20.1725 108.552 20.0114 108.664 19.8076C108.782 19.6038 108.841 19.3803 108.841 19.1371V17.7565C108.841 17.5265 108.749 17.3358 108.565 17.1846C108.388 17.0268 108.151 16.948 107.855 16.948C107.579 16.948 107.332 17.0236 107.116 17.1748C106.905 17.3194 106.751 17.5133 106.652 17.7565L105.597 17.2438C105.702 16.9611 105.866 16.7179 106.09 16.5141C106.32 16.3037 106.59 16.1394 106.899 16.021C107.208 15.9027 107.543 15.8435 107.904 15.8435C108.345 15.8435 108.733 15.9257 109.068 16.0901C109.403 16.2478 109.663 16.4713 109.847 16.7606C110.038 17.0433 110.133 17.3753 110.133 17.7565V21.3262H108.91V20.4091L109.186 20.3894C109.048 20.6195 108.884 20.8134 108.693 20.9712C108.503 21.1224 108.286 21.2407 108.042 21.3262C107.799 21.4051 107.53 21.4445 107.234 21.4445ZM113.676 21.3853C113.071 21.3853 112.601 21.221 112.266 20.8923C111.937 20.557 111.773 20.087 111.773 19.4822V17.1156H110.846V15.9619H110.945C111.208 15.9619 111.411 15.8928 111.556 15.7548C111.701 15.6167 111.773 15.4162 111.773 15.1533V14.7391H113.065V15.9619H114.297V17.1156H113.065V19.4132C113.065 19.5907 113.094 19.7419 113.153 19.8668C113.219 19.9917 113.318 20.087 113.449 20.1527C113.587 20.2185 113.762 20.2513 113.972 20.2513C114.018 20.2513 114.071 20.2481 114.13 20.2415C114.195 20.2349 114.258 20.2283 114.317 20.2218V21.3262C114.225 21.3393 114.12 21.3525 114.001 21.3656C113.883 21.3788 113.775 21.3853 113.676 21.3853ZM115.304 21.3262V15.9619H116.596V21.3262H115.304ZM115.304 15.3604V13.9798H116.596V15.3604H115.304ZM117.788 21.3262V15.9619H119.001V17.017L118.903 16.8296C119.028 16.5075 119.231 16.2643 119.514 16.0999C119.803 15.929 120.139 15.8435 120.52 15.8435C120.914 15.8435 121.263 15.929 121.565 16.0999C121.874 16.2708 122.114 16.5108 122.285 16.8198C122.456 17.1222 122.541 17.4739 122.541 17.8749V21.3262H121.25V18.1806C121.25 17.9439 121.204 17.7401 121.112 17.5692C121.02 17.3983 120.891 17.2668 120.727 17.1748C120.569 17.0761 120.382 17.0268 120.165 17.0268C119.955 17.0268 119.767 17.0761 119.603 17.1748C119.438 17.2668 119.31 17.3983 119.218 17.5692C119.126 17.7401 119.08 17.9439 119.08 18.1806V21.3262H117.788ZM126.237 23.4956C125.836 23.4956 125.465 23.4298 125.123 23.2983C124.781 23.1669 124.485 22.9828 124.235 22.7461C123.992 22.516 123.814 22.2432 123.703 21.9277L124.906 21.4741C124.985 21.7239 125.139 21.9244 125.369 22.0756C125.606 22.2334 125.895 22.3123 126.237 22.3123C126.5 22.3123 126.73 22.263 126.927 22.1643C127.131 22.0657 127.289 21.9211 127.401 21.7305C127.512 21.5464 127.568 21.3229 127.568 21.0599V19.8372L127.815 20.133C127.631 20.4551 127.384 20.6984 127.075 20.8627C126.766 21.0271 126.414 21.1092 126.02 21.1092C125.52 21.1092 125.073 20.9942 124.679 20.7641C124.284 20.534 123.976 20.2185 123.752 19.8175C123.528 19.4165 123.417 18.9661 123.417 18.4665C123.417 17.9603 123.528 17.51 123.752 17.1156C123.976 16.7212 124.281 16.4122 124.669 16.1887C125.057 15.9586 125.497 15.8435 125.99 15.8435C126.391 15.8435 126.743 15.929 127.046 16.0999C127.355 16.2643 127.611 16.5042 127.815 16.8198L127.637 17.1452V15.9619H128.86V21.0599C128.86 21.5267 128.745 21.9441 128.515 22.3123C128.291 22.6804 127.982 22.9696 127.588 23.18C127.2 23.3904 126.75 23.4956 126.237 23.4956ZM126.178 19.9161C126.454 19.9161 126.694 19.8569 126.898 19.7386C127.108 19.6137 127.272 19.4427 127.391 19.2258C127.509 19.0089 127.568 18.7591 127.568 18.4764C127.568 18.2003 127.506 17.9538 127.381 17.7368C127.262 17.5133 127.098 17.3391 126.888 17.2142C126.684 17.0893 126.447 17.0268 126.178 17.0268C125.908 17.0268 125.665 17.0893 125.448 17.2142C125.231 17.3391 125.06 17.5133 124.935 17.7368C124.817 17.9538 124.758 18.2003 124.758 18.4764C124.758 18.7525 124.817 18.999 124.935 19.2159C125.06 19.4329 125.228 19.6038 125.438 19.7287C125.655 19.8536 125.902 19.9161 126.178 19.9161Z" fill="#6A6A6A"/>
<path d="M66.4658 41.3848V39.0182H61.5847V37.0953L66.3179 30.3653H68.7584V37.0953H70.4594V39.0182H68.7584V41.3848H66.4658ZM63.2561 37.9236L62.8271 37.0953H66.4658V32.1402L67.0426 32.3177L63.2561 37.9236ZM72.8129 41.3848V39.1661H75.0315V41.3848H72.8129ZM81.6167 41.5623C80.7884 41.5623 80.0734 41.4094 79.4719 41.1037C78.8803 40.798 78.4267 40.3888 78.1111 39.8761C77.7956 39.3633 77.6378 38.8062 77.6378 38.2046C77.6378 37.4848 77.8252 36.8833 78.1999 36.4001C78.5845 35.9169 79.1465 35.5521 79.8861 35.3055L79.7382 35.8676C79.2156 35.7098 78.7965 35.3844 78.4809 34.8914C78.1752 34.3983 78.0224 33.8511 78.0224 33.2496C78.0224 32.6579 78.1752 32.1304 78.4809 31.6669C78.7866 31.2034 79.2106 30.8435 79.753 30.5871C80.2953 30.3209 80.9165 30.1878 81.6167 30.1878C82.3168 30.1878 82.9331 30.3209 83.4656 30.5871C84.0079 30.8435 84.4319 31.2034 84.7376 31.6669C85.0532 32.1304 85.211 32.6579 85.211 33.2496C85.211 33.8511 85.0581 34.3983 84.7524 34.8914C84.4467 35.3844 84.0276 35.7148 83.4952 35.8824L83.362 35.2908C84.1016 35.5669 84.6637 35.9465 85.0482 36.4297C85.4328 36.903 85.6251 37.4996 85.6251 38.2194C85.6251 38.8209 85.4624 39.3781 85.137 39.8908C84.8214 40.3937 84.3629 40.798 83.7614 41.1037C83.1599 41.4094 82.445 41.5623 81.6167 41.5623ZM81.6167 39.6394C81.9618 39.6394 82.2626 39.5753 82.5189 39.4471C82.7753 39.3189 82.9725 39.1414 83.1106 38.9146C83.2585 38.6878 83.3325 38.4265 83.3325 38.1307C83.3325 37.825 83.2585 37.5637 83.1106 37.3467C82.9725 37.1199 82.7753 36.9474 82.5189 36.8291C82.2626 36.7009 81.9618 36.6368 81.6167 36.6368C81.2814 36.6368 80.9856 36.7009 80.7292 36.8291C80.4827 36.9474 80.2855 37.1199 80.1375 37.3467C79.9995 37.5637 79.9305 37.825 79.9305 38.1307C79.9305 38.4265 79.9995 38.6878 80.1375 38.9146C80.2855 39.1414 80.4827 39.3189 80.7292 39.4471C80.9856 39.5753 81.2814 39.6394 81.6167 39.6394ZM81.6167 34.7139C81.8829 34.7139 82.1097 34.6547 82.2971 34.5364C82.4943 34.4181 82.6471 34.2603 82.7556 34.0631C82.8641 33.8659 82.9183 33.6489 82.9183 33.4123C82.9183 33.1657 82.8641 32.9439 82.7556 32.7467C82.6471 32.5494 82.4943 32.3966 82.2971 32.2881C82.1097 32.1698 81.8829 32.1106 81.6167 32.1106C81.3603 32.1106 81.1335 32.1698 80.9363 32.2881C80.7391 32.3966 80.5862 32.5494 80.4777 32.7467C80.3693 32.9439 80.315 33.1657 80.315 33.4123C80.315 33.6489 80.3693 33.8659 80.4777 34.0631C80.5862 34.2603 80.7391 34.4181 80.9363 34.5364C81.1335 34.6547 81.3603 34.7139 81.6167 34.7139Z" fill="#FEA500"/>
<path d="M104.643 28.3677C104.869 27.9116 105.52 27.9116 105.747 28.3677L107.597 32.0926C107.687 32.2733 107.86 32.3985 108.059 32.4281L112.174 33.0372C112.677 33.1117 112.878 33.7305 112.515 34.087L109.544 36.9982C109.4 37.1394 109.334 37.3421 109.368 37.541L110.06 41.6424C110.145 42.1446 109.618 42.527 109.167 42.2912L105.48 40.3655C105.301 40.2721 105.088 40.2721 104.909 40.3655L101.223 42.2912C100.771 42.527 100.245 42.1446 100.33 41.6424L101.022 37.541C101.055 37.3421 100.989 37.1394 100.845 36.9982L97.8746 34.087C97.5109 33.7305 97.7119 33.1117 98.2157 33.0372L102.33 32.4281C102.53 32.3985 102.702 32.2733 102.792 32.0926L104.643 28.3677Z" fill="#FEA500"/>
<path d="M121.901 28.3677C122.127 27.9116 122.778 27.9116 123.004 28.3677L124.855 32.0926C124.945 32.2733 125.117 32.3985 125.317 32.4281L129.431 33.0372C129.935 33.1117 130.136 33.7305 129.772 34.087L126.802 36.9982C126.658 37.1394 126.592 37.3421 126.625 37.541L127.318 41.6424C127.402 42.1446 126.876 42.527 126.425 42.2912L122.738 40.3655C122.559 40.2721 122.346 40.2721 122.167 40.3655L118.48 42.2912C118.029 42.527 117.503 42.1446 117.587 41.6424L118.28 37.541C118.313 37.3421 118.247 37.1394 118.103 36.9982L115.132 34.087C114.769 33.7305 114.97 33.1117 115.474 33.0372L119.588 32.4281C119.788 32.3985 119.96 32.2733 120.05 32.0926L121.901 28.3677Z" fill="#FEA500"/>
<path d="M139.154 28.3677C139.381 27.9116 140.032 27.9116 140.258 28.3677L142.109 32.0926C142.199 32.2733 142.371 32.3985 142.571 32.4281L146.685 33.0372C147.189 33.1117 147.39 33.7305 147.026 34.087L144.056 36.9982C143.912 37.1394 143.846 37.3421 143.879 37.541L144.572 41.6424C144.656 42.1446 144.13 42.527 143.678 42.2912L139.992 40.3655C139.813 40.2721 139.6 40.2721 139.421 40.3655L135.734 42.2912C135.283 42.527 134.756 42.1446 134.841 41.6424L135.533 37.541C135.567 37.3421 135.501 37.1394 135.357 36.9982L132.386 34.087C132.023 33.7305 132.224 33.1117 132.727 33.0372L136.842 32.4281C137.042 32.3985 137.214 32.2733 137.304 32.0926L139.154 28.3677Z" fill="#FEA500"/>
<path d="M156.412 28.3677C156.639 27.9116 157.29 27.9116 157.516 28.3677L159.367 32.0926C159.457 32.2733 159.629 32.3985 159.829 32.4281L163.943 33.0372C164.447 33.1117 164.648 33.7305 164.284 34.087L161.313 36.9982C161.169 37.1394 161.104 37.3421 161.137 37.541L161.829 41.6424C161.914 42.1446 161.388 42.527 160.936 42.2912L157.25 40.3655C157.071 40.2721 156.858 40.2721 156.679 40.3655L152.992 42.2912C152.541 42.527 152.014 42.1446 152.099 41.6424L152.791 37.541C152.825 37.3421 152.759 37.1394 152.615 36.9982L149.644 34.087C149.28 33.7305 149.481 33.1117 149.985 33.0372L154.1 32.4281C154.299 32.3985 154.472 32.2733 154.562 32.0926L156.412 28.3677Z" fill="#FEA500"/>
<path d="M173.67 28.3677C173.897 27.9116 174.547 27.9116 174.774 28.3677L176.625 32.0926C176.714 32.2733 176.887 32.3985 177.086 32.4281L181.201 33.0372C181.705 33.1117 181.906 33.7305 181.542 34.087L178.571 36.9982C178.427 37.1394 178.361 37.3421 178.395 37.541L179.087 41.6424C179.172 42.1446 178.646 42.527 178.194 42.2912L174.507 40.3655C174.329 40.2721 174.115 40.2721 173.937 40.3655L170.25 42.2912C169.798 42.527 169.272 42.1446 169.357 41.6424L170.049 37.541C170.083 37.3421 170.017 37.1394 169.873 36.9982L166.902 34.087C166.538 33.7305 166.739 33.1117 167.243 33.0372L171.358 32.4281C171.557 32.3985 171.73 32.2733 171.819 32.0926L173.67 28.3677Z" fill="#FEA500"/>
<path d="M63.4432 57.5321C63.0932 57.5321 62.7752 57.4655 62.4892 57.3324C62.2032 57.1993 61.9616 57.0218 61.7644 56.7999C61.5672 56.5731 61.4267 56.3242 61.3429 56.053L61.8754 55.8533C62.0035 56.228 62.2032 56.514 62.4744 56.7112C62.7456 56.9035 63.0685 56.9996 63.4432 56.9996C63.6799 56.9996 63.887 56.9626 64.0645 56.8887C64.2469 56.8098 64.3874 56.7013 64.486 56.5633C64.5846 56.4252 64.6339 56.265 64.6339 56.0826C64.6339 55.8114 64.56 55.6018 64.4121 55.4539C64.2641 55.306 64.0521 55.1926 63.776 55.1137L62.785 54.8179C62.3955 54.7045 62.0948 54.5147 61.8827 54.2484C61.6757 53.9822 61.5721 53.679 61.5721 53.3388C61.5721 53.0479 61.6436 52.7915 61.7866 52.5696C61.9296 52.3428 62.1243 52.1653 62.3709 52.0371C62.6223 51.909 62.9058 51.8449 63.2214 51.8449C63.5517 51.8449 63.8475 51.9065 64.1088 52.0297C64.3751 52.1481 64.5994 52.3059 64.7818 52.5031C64.9643 52.7003 65.0949 52.9197 65.1738 53.1613L64.6561 53.3684C64.5378 53.043 64.3529 52.7964 64.1014 52.6288C63.8549 52.4612 63.564 52.3773 63.2288 52.3773C63.0167 52.3773 62.8294 52.4143 62.6667 52.4883C62.5089 52.5622 62.3857 52.6682 62.2969 52.8063C62.2082 52.9443 62.1638 53.107 62.1638 53.2944C62.1638 53.5212 62.2353 53.7258 62.3783 53.9082C62.5212 54.0857 62.7406 54.2189 63.0365 54.3076L63.9092 54.5665C64.343 54.6946 64.6709 54.8795 64.8928 55.1211C65.1146 55.3627 65.2256 55.6659 65.2256 56.0308C65.2256 56.3266 65.1492 56.5879 64.9963 56.8147C64.8484 57.0366 64.6389 57.2116 64.3677 57.3398C64.1014 57.468 63.7933 57.5321 63.4432 57.5321ZM68.0913 57.5321C67.7215 57.5321 67.3862 57.4434 67.0855 57.2659C66.7896 57.0834 66.5554 56.8345 66.3829 56.5189C66.2103 56.2034 66.124 55.8459 66.124 55.4465C66.124 55.0472 66.2079 54.6946 66.3755 54.389C66.5431 54.0783 66.7699 53.8343 67.0559 53.6568C67.3468 53.4793 67.6722 53.3905 68.0321 53.3905C68.3181 53.3905 68.572 53.4448 68.7939 53.5533C69.0207 53.6568 69.2129 53.7998 69.3707 53.9822C69.5285 54.1597 69.6493 54.3618 69.7331 54.5886C69.8169 54.8105 69.8588 55.0398 69.8588 55.2764C69.8588 55.3257 69.8564 55.3824 69.8514 55.4465C69.8465 55.5057 69.8391 55.5673 69.8293 55.6314H66.479V55.1137H69.5112L69.245 55.3356C69.2894 55.0644 69.2573 54.8228 69.1489 54.6108C69.0453 54.3939 68.8949 54.2238 68.6977 54.1005C68.5005 53.9723 68.2786 53.9082 68.0321 53.9082C67.7856 53.9082 67.5563 53.9723 67.3443 54.1005C67.1372 54.2287 66.9745 54.4087 66.8562 54.6404C66.7379 54.8672 66.691 55.1384 66.7157 55.4539C66.691 55.7695 66.7403 56.0456 66.8636 56.2822C66.9918 56.514 67.1644 56.6939 67.3813 56.8221C67.6032 56.9503 67.8398 57.0144 68.0913 57.0144C68.3822 57.0144 68.6262 56.9454 68.8234 56.8073C69.0207 56.6693 69.1809 56.4967 69.3042 56.2896L69.7775 56.5411C69.6986 56.7186 69.5778 56.8838 69.4151 57.0366C69.2524 57.1845 69.0576 57.3053 68.8308 57.399C68.609 57.4877 68.3624 57.5321 68.0913 57.5321ZM72.6413 57.5321C72.2715 57.5321 71.9363 57.4434 71.6355 57.2659C71.3397 57.0834 71.1055 56.8345 70.9329 56.5189C70.7604 56.2034 70.6741 55.8459 70.6741 55.4465C70.6741 55.0472 70.7579 54.6946 70.9255 54.389C71.0932 54.0783 71.32 53.8343 71.6059 53.6568C71.8968 53.4793 72.2222 53.3905 72.5822 53.3905C72.8681 53.3905 73.122 53.4448 73.3439 53.5533C73.5707 53.6568 73.763 53.7998 73.9208 53.9822C74.0785 54.1597 74.1993 54.3618 74.2832 54.5886C74.367 54.8105 74.4089 55.0398 74.4089 55.2764C74.4089 55.3257 74.4064 55.3824 74.4015 55.4465C74.3966 55.5057 74.3892 55.5673 74.3793 55.6314H71.0291V55.1137H74.0613L73.795 55.3356C73.8394 55.0644 73.8074 54.8228 73.6989 54.6108C73.5954 54.3939 73.445 54.2238 73.2478 54.1005C73.0506 53.9723 72.8287 53.9082 72.5822 53.9082C72.3356 53.9082 72.1064 53.9723 71.8944 54.1005C71.6873 54.2287 71.5246 54.4087 71.4063 54.6404C71.2879 54.8672 71.2411 55.1384 71.2657 55.4539C71.2411 55.7695 71.2904 56.0456 71.4137 56.2822C71.5418 56.514 71.7144 56.6939 71.9313 56.8221C72.1532 56.9503 72.3899 57.0144 72.6413 57.0144C72.9322 57.0144 73.1763 56.9454 73.3735 56.8073C73.5707 56.6693 73.731 56.4967 73.8542 56.2896L74.3275 56.5411C74.2486 56.7186 74.1279 56.8838 73.9651 57.0366C73.8024 57.1845 73.6077 57.3053 73.3809 57.399C73.159 57.4877 72.9125 57.5321 72.6413 57.5321ZM77.7898 57.5321C77.5384 57.5321 77.3141 57.4853 77.1168 57.3916C76.9196 57.293 76.7643 57.1599 76.6509 56.9922C76.5375 56.8246 76.4808 56.6323 76.4808 56.4154C76.4808 56.2083 76.5252 56.0209 76.6139 55.8533C76.7027 55.6807 76.8407 55.5353 77.0281 55.417C77.2155 55.2986 77.4546 55.2148 77.7455 55.1655L79.2986 54.9067V55.4096L77.8786 55.6462C77.5926 55.6955 77.3856 55.7867 77.2574 55.9199C77.1341 56.053 77.0725 56.2108 77.0725 56.3932C77.0725 56.5707 77.1415 56.7211 77.2795 56.8443C77.4225 56.9676 77.605 57.0292 77.8268 57.0292C78.098 57.0292 78.3347 56.9725 78.5368 56.8591C78.739 56.7408 78.8967 56.583 79.0101 56.3858C79.1235 56.1886 79.1802 55.9692 79.1802 55.7276V54.7218C79.1802 54.4851 79.0939 54.2928 78.9214 54.1449C78.7488 53.997 78.5245 53.923 78.2484 53.923C78.0068 53.923 77.7948 53.9847 77.6124 54.1079C77.4299 54.2263 77.2943 54.3816 77.2056 54.5739L76.7027 54.3002C76.7766 54.1326 76.8925 53.9797 77.0503 53.8417C77.213 53.7036 77.3979 53.5952 77.605 53.5163C77.812 53.4325 78.0265 53.3905 78.2484 53.3905C78.5393 53.3905 78.7957 53.4472 79.0175 53.5606C79.2443 53.674 79.4194 53.8318 79.5426 54.034C79.6708 54.2312 79.7349 54.4605 79.7349 54.7218V57.4434H79.1802V56.652L79.2616 56.7334C79.1926 56.8813 79.0841 57.0169 78.9362 57.1401C78.7932 57.2585 78.6231 57.3546 78.4259 57.4286C78.2336 57.4976 78.0216 57.5321 77.7898 57.5321ZM80.8758 57.4434V51.8449H81.4305V57.4434H80.8758ZM82.5658 57.4434V51.8449H83.1205V57.4434H82.5658ZM87.3688 57.5321C86.9941 57.5321 86.6539 57.4434 86.3482 57.2659C86.0425 57.0834 85.7985 56.8369 85.6161 56.5263C85.4386 56.2108 85.3498 55.8533 85.3498 55.4539C85.3498 55.0595 85.4386 54.707 85.6161 54.3964C85.7936 54.0857 86.0327 53.8417 86.3334 53.6642C86.6391 53.4818 86.9842 53.3905 87.3688 53.3905C87.7534 53.3905 88.0961 53.4793 88.3968 53.6568C88.7025 53.8343 88.9416 54.0783 89.1142 54.389C89.2917 54.6996 89.3804 55.0546 89.3804 55.4539C89.3804 55.8582 89.2892 56.2181 89.1068 56.5337C88.9244 56.8443 88.6803 57.0884 88.3746 57.2659C88.0739 57.4434 87.7386 57.5321 87.3688 57.5321ZM87.3688 56.9774C87.6351 56.9774 87.8742 56.9109 88.0862 56.7778C88.3031 56.6446 88.4732 56.4622 88.5965 56.2305C88.7247 55.9987 88.7888 55.7399 88.7888 55.4539C88.7888 55.168 88.7247 54.9116 88.5965 54.6848C88.4732 54.458 88.3031 54.278 88.0862 54.1449C87.8742 54.0118 87.6351 53.9452 87.3688 53.9452C87.1026 53.9452 86.861 54.0118 86.644 54.1449C86.432 54.278 86.2619 54.458 86.1338 54.6848C86.0056 54.9116 85.9415 55.168 85.9415 55.4539C85.9415 55.7399 86.0056 55.9987 86.1338 56.2305C86.2619 56.4622 86.432 56.6446 86.644 56.7778C86.861 56.9109 87.1026 56.9774 87.3688 56.9774ZM91.7639 57.5321C91.4878 57.5321 91.2363 57.468 91.0095 57.3398C90.7827 57.2067 90.6027 57.0243 90.4696 56.7925C90.3414 56.5559 90.2773 56.2847 90.2773 55.979V53.4793H90.832V55.9125C90.832 56.1245 90.8739 56.3118 90.9577 56.4745C91.0465 56.6323 91.1673 56.7556 91.3201 56.8443C91.4779 56.9331 91.6579 56.9774 91.86 56.9774C92.0621 56.9774 92.2421 56.9331 92.3999 56.8443C92.5577 56.7506 92.6809 56.62 92.7697 56.4523C92.8584 56.2798 92.9028 56.0752 92.9028 55.8385V53.4793H93.4575V57.4434H92.9028V56.6742L93.0285 56.7038C92.9348 56.9602 92.7746 57.1623 92.5478 57.3102C92.321 57.4582 92.0597 57.5321 91.7639 57.5321ZM94.5982 57.4434V53.4793H95.1529V54.1301L95.0789 54.034C95.1726 53.8466 95.3131 53.6987 95.5004 53.5902C95.6927 53.4818 95.9245 53.4275 96.1956 53.4275H96.4471V53.9822H96.0995C95.8135 53.9822 95.5843 54.0709 95.4117 54.2484C95.2391 54.4259 95.1529 54.6774 95.1529 55.0028V57.4434H94.5982ZM98.3538 57.4434V53.4793H98.9085V54.1301L98.8345 54.034C98.9282 53.8466 99.0687 53.6987 99.256 53.5902C99.4483 53.4818 99.6801 53.4275 99.9512 53.4275H100.203V53.9822H99.8551C99.5691 53.9822 99.3399 54.0709 99.1673 54.2484C98.9947 54.4259 98.9085 54.6774 98.9085 55.0028V57.4434H98.3538ZM102.657 57.5321C102.287 57.5321 101.952 57.4434 101.651 57.2659C101.356 57.0834 101.121 56.8345 100.949 56.5189C100.776 56.2034 100.69 55.8459 100.69 55.4465C100.69 55.0472 100.774 54.6946 100.941 54.389C101.109 54.0783 101.336 53.8343 101.622 53.6568C101.913 53.4793 102.238 53.3905 102.598 53.3905C102.884 53.3905 103.138 53.4448 103.36 53.5533C103.587 53.6568 103.779 53.7998 103.937 53.9822C104.094 54.1597 104.215 54.3618 104.299 54.5886C104.383 54.8105 104.425 55.0398 104.425 55.2764C104.425 55.3257 104.422 55.3824 104.417 55.4465C104.412 55.5057 104.405 55.5673 104.395 55.6314H101.045V55.1137H104.077L103.811 55.3356C103.855 55.0644 103.823 54.8228 103.715 54.6108C103.611 54.3939 103.461 54.2238 103.264 54.1005C103.066 53.9723 102.845 53.9082 102.598 53.9082C102.352 53.9082 102.122 53.9723 101.91 54.1005C101.703 54.2287 101.54 54.4087 101.422 54.6404C101.304 54.8672 101.257 55.1384 101.282 55.4539C101.257 55.7695 101.306 56.0456 101.43 56.2822C101.558 56.514 101.73 56.6939 101.947 56.8221C102.169 56.9503 102.406 57.0144 102.657 57.0144C102.948 57.0144 103.192 56.9454 103.389 56.8073C103.587 56.6693 103.747 56.4967 103.87 56.2896L104.343 56.5411C104.265 56.7186 104.144 56.8838 103.981 57.0366C103.818 57.1845 103.624 57.3053 103.397 57.399C103.175 57.4877 102.928 57.5321 102.657 57.5321ZM106.388 57.4434L104.842 53.4793H105.464L106.765 56.9552H106.566L107.875 53.4793H108.503L106.943 57.4434H106.388ZM109.151 57.4434V53.4793H109.706V57.4434H109.151ZM109.151 52.7471V51.9336H109.706V52.7471H109.151ZM112.646 57.5321C112.276 57.5321 111.941 57.4434 111.64 57.2659C111.344 57.0834 111.11 56.8345 110.937 56.5189C110.765 56.2034 110.678 55.8459 110.678 55.4465C110.678 55.0472 110.762 54.6946 110.93 54.389C111.098 54.0783 111.324 53.8343 111.61 53.6568C111.901 53.4793 112.227 53.3905 112.587 53.3905C112.872 53.3905 113.126 53.4448 113.348 53.5533C113.575 53.6568 113.767 53.7998 113.925 53.9822C114.083 54.1597 114.204 54.3618 114.288 54.5886C114.371 54.8105 114.413 55.0398 114.413 55.2764C114.413 55.3257 114.411 55.3824 114.406 55.4465C114.401 55.5057 114.394 55.5673 114.384 55.6314H111.033V55.1137H114.066L113.799 55.3356C113.844 55.0644 113.812 54.8228 113.703 54.6108C113.6 54.3939 113.449 54.2238 113.252 54.1005C113.055 53.9723 112.833 53.9082 112.587 53.9082C112.34 53.9082 112.111 53.9723 111.899 54.1005C111.692 54.2287 111.529 54.4087 111.411 54.6404C111.292 54.8672 111.245 55.1384 111.27 55.4539C111.245 55.7695 111.295 56.0456 111.418 56.2822C111.546 56.514 111.719 56.6939 111.936 56.8221C112.158 56.9503 112.394 57.0144 112.646 57.0144C112.937 57.0144 113.181 56.9454 113.378 56.8073C113.575 56.6693 113.735 56.4967 113.859 56.2896L114.332 56.5411C114.253 56.7186 114.132 56.8838 113.969 57.0366C113.807 57.1845 113.612 57.3053 113.385 57.399C113.163 57.4877 112.917 57.5321 112.646 57.5321ZM116.264 57.4434L114.903 53.4793H115.532L116.656 56.9479H116.434L117.492 53.4793H118.046L119.104 56.9479H118.882L120.013 53.4793H120.635L119.274 57.4434H118.719L117.691 54.0488H117.847L116.819 57.4434H116.264ZM122.66 57.5321C122.281 57.5321 121.948 57.436 121.662 57.2437C121.376 57.0514 121.169 56.7901 121.041 56.4597L121.506 56.2379C121.62 56.4795 121.778 56.6717 121.98 56.8147C122.187 56.9577 122.414 57.0292 122.66 57.0292C122.897 57.0292 123.097 56.9725 123.259 56.8591C123.422 56.7408 123.503 56.5879 123.503 56.4006C123.503 56.2625 123.464 56.1541 123.385 56.0752C123.306 55.9913 123.215 55.9273 123.111 55.8829C123.008 55.8385 122.917 55.8065 122.838 55.7867L122.268 55.624C121.903 55.5205 121.64 55.375 121.477 55.1877C121.314 55.0003 121.233 54.7834 121.233 54.5369C121.233 54.3051 121.292 54.103 121.41 53.9304C121.529 53.7579 121.689 53.6247 121.891 53.5311C122.093 53.4374 122.318 53.3905 122.564 53.3905C122.899 53.3905 123.203 53.4793 123.474 53.6568C123.75 53.8294 123.945 54.0709 124.058 54.3816L123.585 54.6034C123.486 54.3816 123.343 54.209 123.156 54.0857C122.973 53.9575 122.769 53.8935 122.542 53.8935C122.32 53.8935 122.142 53.9502 122.009 54.0636C121.876 54.177 121.81 54.3199 121.81 54.4925C121.81 54.6256 121.844 54.7316 121.913 54.8105C121.982 54.8894 122.061 54.9486 122.15 54.988C122.244 55.0274 122.325 55.057 122.394 55.0768L123.052 55.269C123.373 55.3627 123.622 55.5082 123.799 55.7054C123.982 55.9026 124.073 56.1343 124.073 56.4006C124.073 56.6175 124.011 56.8123 123.888 56.9848C123.77 57.1574 123.604 57.293 123.392 57.3916C123.18 57.4853 122.936 57.5321 122.66 57.5321Z" fill="#868686"/>
</g>
<defs>
<clipPath id="clip0_29_73">
<path d="M0 4.93043C0 2.20743 2.20743 0 4.93043 0H192.71C195.433 0 197.641 2.20743 197.641 4.93043V63.3738C197.641 66.0968 195.433 68.3043 192.71 68.3043H4.93043C2.20743 68.3043 0 66.0968 0 63.3738V4.93043Z" fill="white"/>
</clipPath>
</defs>
</svg>
